# xmcd
#
# Track frame offsets: 
#        150
#        14992
#        28678
#        42760
#
# Disc length: 779 seconds
#
# Revision: 0
# Processed by: cddbd v1.5.2PL0 Copyright (c) Steve Scherf et al.
# Submitted via: ExactAudioCopy v0.99pb4
#
DISCID=2e030904
DTITLE=에보니힐 - Evolution
DYEAR=2010
DGENRE=R&B
TTITLE0=너같은 여자
TTITLE1=Rock N Soul
TTITLE2=고백
TTITLE3=Stop
EXTD=
EXTT0=
EXTT1=
EXTT2=
EXTT3=
PLAYORDER=
